<?xml version="1.0" encoding="utf-8"?>
<!-- Generator: Adobe Illustrator 23.0.3, SVG Export Plug-In . SVG Version: 6.00 Build 0)  -->
<svg version="1.1" id="icons" xmlns="http://www.w3.org/2000/svg" xmlns:xlink="http://www.w3.org/1999/xlink" x="0px" y="0px"
	 width="512px" height="512px" viewBox="0 0 512 512" style="enable-background:new 0 0 512 512;" xml:space="preserve">
<style type="text/css">
	.st0{fill:#FFFFFF;}
</style>
<g>
	<path class="st0" d="M359.5,225.4v-17.5v-17.3c0-3.2-2.6-5.8-5.8-5.8h-11.5v-69c0-0.8-0.2-1.5-0.4-2.2c-0.2-0.6-0.6-1.1-1.1-1.6
		c-0.1-0.1-0.1-0.2-0.2-0.3L311.8,83c-0.5-0.5-1.2-0.9-1.9-1.2c-0.7-0.3-1.4-0.4-2.2-0.4H187c-3.2,0-5.8,2.6-5.8,5.8v92H164
		c-3.2,0-5.8,2.6-5.8,5.8v74.7H141c-38.1,0-69,31-69,69v23c0,38.1,31,69,69,69h212.8c47.6,0,86.3-38.7,86.3-86.3v-23
		C440,265.7,404.4,228.4,359.5,225.4L359.5,225.4z M348,196.4v5.8h-5.8v-5.8H348z M313.5,101l9.1,9.1h-9.1V101z M192.7,92.9H302v23
		c0,3.2,2.6,5.8,5.8,5.8h23v80.5h-95.4l-21.3-21.3c-1.1-1.1-2.5-1.7-4.1-1.7h-17.3V92.9z M169.7,190.6h17.2c0,0,0,0,0.1,0s0,0,0.1,0
		h20.6l21.3,21.3c1.1,1.1,2.5,1.7,4.1,1.7h103.5c0,0,0,0,0,0s0,0,0,0H348v109.3H169.7L169.7,190.6z M353.8,409.1H141
		c-24.6,0-45.7-15.6-53.8-37.5c12.7,15.8,32.1,25.9,53.8,25.9h212.8c28.3,0,53.4-13.8,69.1-34.9C411.7,389.9,385,409.1,353.8,409.1z
		 M353.8,386.1H141c-31.7,0-57.5-25.8-57.5-57.5c0-31.7,25.8-57.5,57.5-57.5h17.3v51.8h-5.8c-3.2,0-5.8,2.6-5.8,5.8s2.6,5.8,5.8,5.8
		H164h189.8h11.5c3.2,0,5.8-2.6,5.8-5.8s-2.6-5.8-5.8-5.8h-5.7v-86c38.5,3,69,35.2,69,74.5C428.5,352.6,395,386.1,353.8,386.1z"/>
	<path class="st0" d="M258.9,311.3c23.8,0,43.1-19.3,43.1-43.1s-19.3-43.1-43.1-43.1c-23.8,0-43.1,19.3-43.1,43.1
		S235.1,311.3,258.9,311.3z M258.9,236.6c17.4,0,31.6,14.2,31.6,31.6s-14.2,31.6-31.6,31.6s-31.6-14.2-31.6-31.6
		S241.4,236.6,258.9,236.6z"/>
	<path class="st0" d="M244.5,274h8.6v8.6c0,3.2,2.6,5.8,5.8,5.8s5.8-2.6,5.8-5.8V274h8.6c3.2,0,5.8-2.6,5.8-5.8s-2.6-5.8-5.8-5.8
		h-8.6v-8.6c0-3.2-2.6-5.8-5.8-5.8c-3.2,0-5.8,2.6-5.8,5.8v8.6h-8.6c-3.2,0-5.8,2.6-5.8,5.8S241.3,274,244.5,274z"/>
</g>
<g>
	<path class="st0" d="M256,21.3c31.7,0,62.4,6.2,91.4,18.4C375.3,51.5,400.4,68.5,422,90c21.6,21.6,38.5,46.7,50.3,74.6
		c12.2,28.9,18.4,59.7,18.4,91.4s-6.2,62.4-18.4,91.4c-11.8,27.9-28.7,53.1-50.3,74.6c-21.6,21.6-46.7,38.5-74.6,50.3
		c-28.9,12.2-59.7,18.4-91.4,18.4s-62.4-6.2-91.4-18.4c-27.9-11.8-53.1-28.7-74.6-50.3c-21.6-21.6-38.5-46.7-50.3-74.6
		c-12.2-28.9-18.4-59.7-18.4-91.4s6.2-62.4,18.4-91.4C51.5,136.7,68.5,111.6,90,90c21.6-21.6,46.7-38.5,74.6-50.3
		C193.6,27.5,224.3,21.3,256,21.3 M256,11.3C120.8,11.3,11.3,120.8,11.3,256S120.8,500.7,256,500.7S500.7,391.2,500.7,256
		S391.2,11.3,256,11.3L256,11.3z"/>
</g>
</svg>
