<?xml version="1.0" encoding="utf-8"?>
<!-- Generator: Adobe Illustrator 23.0.3, SVG Export Plug-In . SVG Version: 6.00 Build 0)  -->
<svg version="1.1" id="icons" xmlns="http://www.w3.org/2000/svg" xmlns:xlink="http://www.w3.org/1999/xlink" x="0px" y="0px"
	 width="512px" height="512px" viewBox="0 0 512 512" style="enable-background:new 0 0 512 512;" xml:space="preserve">
<style type="text/css">
	.st0{fill:#231F20;}
	.st1{fill:#FFFFFF;}
</style>
<path class="st0" d="M787.9,21.3c31.7,0,62.4,6.2,91.4,18.4c27.9,11.8,53,28.8,74.6,50.3c21.6,21.6,38.5,46.7,50.3,74.6
	c12.2,28.9,18.4,59.7,18.4,91.4s-6.2,62.4-18.4,91.4c-11.8,27.9-28.7,53.1-50.3,74.6c-21.6,21.6-46.7,38.5-74.6,50.3
	c-28.9,12.2-59.7,18.4-91.4,18.4c-31.7,0-62.4-6.2-91.4-18.4c-27.9-11.8-53.1-28.7-74.6-50.3c-21.6-21.6-38.5-46.7-50.3-74.6
	c-12.2-28.9-18.4-59.7-18.4-91.4s6.2-62.4,18.4-91.4c11.8-27.9,28.8-53,50.3-74.6c21.6-21.6,46.7-38.5,74.6-50.3
	C725.5,27.5,756.2,21.3,787.9,21.3"/>
<g>
	<path class="st1" d="M258.9,236.6c-17.5,0-31.6,14.2-31.6,31.6c0,17.4,14.2,31.6,31.6,31.6c17.4,0,31.6-14.2,31.6-31.6
		S276.3,236.6,258.9,236.6z M273.3,274h-8.6v8.6c0,3.2-2.6,5.8-5.8,5.8c-3.2,0-5.8-2.6-5.8-5.8V274h-8.6c-3.2,0-5.8-2.6-5.8-5.8
		c0-3.2,2.6-5.8,5.8-5.8h8.6v-8.6c0-3.2,2.6-5.8,5.8-5.8c3.2,0,5.8,2.6,5.8,5.8v8.6h8.6c3.2,0,5.8,2.6,5.8,5.8
		C279.1,271.4,276.5,274,273.3,274z"/>
	<path class="st1" d="M214.1,180.9l21.3,21.3h95.4v-80.5h-23c-3.2,0-5.8-2.6-5.8-5.8v-23H192.7v86.3H210
		C211.6,179.2,213,179.8,214.1,180.9z"/>
	<polygon class="st1" points="313.5,101 313.5,110.1 322.6,110.1 	"/>
	<rect x="342.2" y="196.4" class="st1" width="5.8" height="5.8"/>
	<path class="st1" d="M256,11.3C120.8,11.3,11.3,120.8,11.3,256S120.8,500.7,256,500.7S500.7,391.2,500.7,256S391.2,11.3,256,11.3z
		 M353.8,420.7H141c-38,0-69-30.9-69-69v-23c0-38,30.9-69,69-69h17.2V185c0-3.2,2.6-5.8,5.8-5.8h17.2v-92c0-3.2,2.6-5.8,5.8-5.8
		h120.7c0.8,0,1.5,0.1,2.2,0.4c0.7,0.3,1.4,0.7,1.9,1.2l28.7,28.7c0.1,0.1,0.1,0.2,0.2,0.3c0.5,0.5,0.9,1,1.1,1.6
		c0.2,0.7,0.4,1.4,0.4,2.2v69h11.5c3.2,0,5.8,2.6,5.8,5.8v17.3v17.5c44.9,3,80.5,40.3,80.6,86v23C440.1,382,401.4,420.7,353.8,420.7
		z"/>
	<path class="st1" d="M359.6,236.9v86h5.7c3.2,0,5.8,2.6,5.8,5.8c0,3.2-2.6,5.8-5.8,5.8h-11.5H164h-11.5c-3.2,0-5.8-2.6-5.8-5.8
		c0-3.2,2.6-5.8,5.8-5.8h5.8v-51.8H141c-31.7,0-57.5,25.8-57.5,57.5s25.8,57.5,57.5,57.5h212.8c41.2,0,74.7-33.5,74.8-74.7
		C428.6,272.1,398.1,239.9,359.6,236.9z"/>
	<path class="st1" d="M353.8,397.5H141c-21.7,0-41.1-10.1-53.8-25.9c8.1,21.9,29.2,37.5,53.8,37.5h212.8c31.2,0,57.9-19.2,69.1-46.5
		C407.2,383.7,382.1,397.5,353.8,397.5z"/>
	<path class="st1" d="M348,213.6h-11.4H233.1c-1.6,0-3-0.6-4.1-1.7l-21.3-21.3h-20.6c-0.1,0,0,0-0.1,0c-0.1,0-0.1,0-0.1,0h-17.2
		v132.3H348V213.6z M258.9,311.3c-23.8,0-43.1-19.3-43.1-43.1c0-23.8,19.3-43.1,43.1-43.1c23.8,0,43.1,19.3,43.1,43.1
		C302,292,282.7,311.3,258.9,311.3z"/>
</g>
</svg>
