<?xml version="1.0" encoding="utf-8"?>
<!-- Generator: Adobe Illustrator 23.0.3, SVG Export Plug-In . SVG Version: 6.00 Build 0)  -->
<svg version="1.1" id="icons" xmlns="http://www.w3.org/2000/svg" xmlns:xlink="http://www.w3.org/1999/xlink" x="0px" y="0px"
	 width="512px" height="512px" viewBox="0 0 512 512" style="enable-background:new 0 0 512 512;" xml:space="preserve">
<style type="text/css">
	.st0{fill:#FFFFFF;}
</style>
<g id="N0xXC0.tif">
	<g>
		<path class="st0" d="M181.1,289.7c0-23.3,0.1-46.7-0.1-70c-0.1-7.1,1.4-13.5,5.6-19.2c1.8-2.5,1.5-3.7-1.3-4.5
			c-0.2,0-0.3-0.2-0.4-0.2c-10.6-4.9-8.7-3.2-8.5,5.2c0.2,7.8-0.2,8.1-7.9,8.1c-1.2,0-2.3-0.1-3.5,0c-6,0.8-11.1-0.7-14.7-5.9
			c-2.1-2.9-4.3-2.9-6.3,0c-6.2,9-15.4,5.2-23.7,5.6c-1.3,0.1-2-1-2.2-2.3c-0.2-1-0.2-2-0.2-3c-0.4-11.4-0.4-11.4-10.7-6.9
			c-3.8,1.7-7.5,3.5-11.3,5.1c-8,3.3-11.5,9.4-11.5,17.9c0.1,34.3,0,68.6,0,102.8c0,9.4,0.2,18.9-0.1,28.3c-0.1,4.1,1.7,5,5.4,5
			c3.8,0,5.3-1.2,5.3-5.1c-0.1-32.3-0.1-64.6-0.1-96.9c0-7.1,0.4-7.2,7.2-7.3c4.3,0,5.3,1.8,5.2,5.7c-0.1,26.7,0.1,53.3-0.2,80
			c0,4.9,1.3,6.7,6.4,6.6c17.4-0.3,34.8,0,52.2-0.3c4.4-0.1,5,2,4.9,5.5c-0.2,3.4,0.9,7.2-4.8,7.2c-17.6-0.1-35.1,0.1-52.7-0.1
			c-4.4-0.1-6.2,1.1-6,5.8c0.3,9.9,0,19.9,0.2,29.8c0.1,3.6-0.7,5.1-4.7,4.8c-7.7-0.6-7.7-0.4-7.7-8.1c0-3.8-0.1-7.6,0-11.4
			c0-2.7-1.2-3.9-3.9-3.9c-4.1,0.1-8.3,0-12.4,0c-6.4,0-6.6-0.1-6.6-6.8c0-33,0-65.9,0-98.9c0-14.2,0-28.5,0-42.7
			c0-13.8,6-23.7,18.8-29.4c9.2-4.1,18.4-8.2,27.7-12.3c5-2.2,7.8-9,4.2-12.9c-12.6-13.5-11.1-29.7-10.2-46c0.8-14.3,8-24.3,21-30
			c22-9.6,47,6,48.2,30c0.4,7.8,0.3,15.6,0,23.3c-0.2,7.2-3,13.6-7.7,19c-2.7,3.1-3.7,6.4-3.4,10.4c0.2,2.6,0.9,4.3,3.5,5.3
			c7.9,3.3,15.8,6.8,23.6,10.4c2.8,1.3,5.3,1.2,8.1-0.1c7.4-3.4,14.8-6.5,22.3-9.8c5.3-2.3,7.1-9.6,3-13.8c-7.6-8-10.2-17.5-10-28.2
			c0.1-6.3-0.4-12.7,0.4-18.8c2.5-18.7,17.6-31.2,36.2-30.6c17.1,0.5,31.7,14.7,33,33.1c0.7,9,1.1,18.2-0.6,27.2
			c-1.2,6.1-3.9,11.5-8.2,16.2c-5.1,5.6-3.7,12.3,3.1,15.3c6.5,2.8,13.1,5.7,19.5,8.8c4.2,2.1,8.1,2,12.3-0.1
			c6.4-3.1,13-5.9,19.5-8.7c5.4-2.4,7.7-9.4,3.7-13.8c-8.1-9.1-10.6-19.5-9.8-31.3c0.3-4.1,0-8.3,0.1-12.4
			c0.3-18.1,14.5-33.3,32.1-34.3c18.3-1,34.3,11.9,36.8,29.9c1.4,9.7,1.3,19.5,0,29.2c-0.9,6.6-4,12.2-8.2,17.3
			c-5.2,6.2-3.7,12.5,3.5,15.7c9.7,4.3,19.4,8.6,29,13.1c10.9,5.1,16.2,14.2,16.4,25.8c0.4,18,0,36.1,0.2,54.1
			c0.1,5.4-3.1,5.1-6.8,5.2c-4.2,0.2-5.9-1.2-5.8-5.7c0.2-16.4-0.2-32.8,0.2-49.2c0.2-10.5-3.8-17.4-13.6-21.2
			c-5.4-2.1-10.6-4.6-15.9-7c-2.7-1.2-4.2-0.8-4,2.5c0,0.3,0,0.7,0,1c-0.3,11.9-0.3,11.6-11.9,12c-5.9,0.2-10.7-1.1-14.3-6
			c-2.1-2.9-4.2-2.8-6.2,0c-6.2,8.9-15.5,5.2-23.7,5.6c-2,0.1-2.1-1.9-2.2-3.3c-0.1-3-0.1-6-0.1-8.9c0-1,0.3-2.7-0.1-2.8
			c-3.9-1.8-6.6,1.8-9.9,2.7c-1.8,0.5-2.4,1.5-0.9,3.2c6.5,7.8,6.1,17.1,6.1,26.4c0,4.8-2.8,4.8-6.2,4.8c-3.3,0-6.9,0.2-6.2-4.6
			c2.2-15.3-5.2-23.7-19-28c-3.8-1.2-7.3-3.1-10.9-4.8c-2.7-1.3-3.6-0.4-3.6,2.4c0.1,3-0.1,6,0,8.9c0.1,2.9-1.2,4.3-4.1,4.2
			c-4.3-0.1-8.6-0.1-12.9,0c-4.1,0.1-6-3.2-8.4-5.6c-2.5-2.4-4.7-3.6-7.2-0.1c-6.1,8.8-15.2,5.1-23.2,5.4c-2.1,0.1-2.3-2.1-2.3-3.8
			c0-3.1-0.1-6.3,0-9.4c0-2.6-1.1-3.2-3.4-2.1c-6.9,3.2-14,6-20.8,9.5c-6,3.1-9.2,8.2-9.2,15.3c0,44,0.1,88.1,0,132.1
			c0,4,1.2,5.6,5.4,5.6c4.3,0,5.3-1.7,5.3-5.6c-0.1-32.3-0.1-64.6-0.1-96.9c0-6.1,4.8-9,10.5-6.4c2.4,1.1,1.8,3.3,1.9,5.2
			c0,20.9,0,41.7,0,62.6c0,6.5,0.1,12.9,0,19.4c-0.1,3.4,1.2,4.7,4.7,4.6c8.3-0.2,16.6,0.2,24.8-0.1c5-0.2,5.2,2.6,5.2,6.3
			c0,3.7-0.3,6.4-5.2,6.3c-8.1-0.3-16.2,0.1-24.3-0.1c-3.9-0.1-5.2,1.4-5.1,5.2c0.2,9.9-0.2,19.9,0.1,29.8c0.2,6.4-4,5.1-7.6,5.5
			c-4.1,0.4-5.2-1.6-5-5.3c0.2-4.3-0.1-8.6,0.1-12.9c0.2-3.8-1-5.5-5.1-5.2c-4.3,0.3-8.6-0.2-12.9,0.1c-3.9,0.3-5.1-1.1-5.1-5
			C181.2,338.7,181.1,314.2,181.1,289.7z M169.3,130.9c0,0-0.1,0-0.1,0c0-3.8,0.3-7.6-0.1-11.4c-1.1-12.1-11.3-21.2-23.1-20.8
			c-11.6,0.4-20.9,9.9-21.2,22c-0.2,6-0.1,11.9,0,17.9c0.1,12.2,6,19.8,17.8,23c4.3,1.1,5.2,3.5,4.2,9.7c-0.7,4.2-3.7,3.2-6.1,2.5
			c-4.2-1.1-4.9,0.8-4.8,4.3c0.1,2.4,0.8,5.2-2.2,6.5c-3.8,1.7-3.8,5-3.6,8.4c0.1,1.1-0.2,2.5,1.1,3.1c1.5,0.8,2.5-0.2,3.5-1.2
			c2.8-2.8,5.8-5.4,8.4-8.4c2.7-3.2,4.9-3.8,7.8-0.2c2.6,3.2,5.8,5.9,8.8,8.8c1.1,1,3.2,2.3,3.3,0c0.3-3.3,2-7.2-1.8-10.1
			c-4.1-3.1-4.5-24-0.7-27.7c0.8-0.8,1.8-1.5,2.6-2.3c3.9-3.9,6-8.7,6.2-14.2C169.4,137.6,169.3,134.3,169.3,130.9z M387,131.1
			C386.9,131.1,386.9,131.1,387,131.1c0-4,0.2-8-0.1-11.9c-1-11.8-11.1-20.8-22.8-20.4c-11.7,0.3-21.1,9.8-21.5,21.8
			c-0.2,6.4,0.1,12.9-0.1,19.4c-0.3,10.6,8.9,19.9,17.7,21.7c5.2,1,5.5,2,4.3,9.6c-0.7,4.8-4,3-6.4,2.5c-3.4-0.7-4.5,0.2-4.5,3.7
			c0,2.4,1.4,5.8-1.8,7.1c-3.6,1.5-3.7,4.3-3.5,7.3c0.1,1.4-0.5,3.3,1.1,4.1c1.9,0.9,2.9-1.1,4-2.1c2.9-2.7,5.8-5.5,8.5-8.4
			c2.1-2.2,3.7-2.2,5.7,0c3.1,3.2,6.4,6.3,9.5,9.4c1.2,1.2,2.4,2.7,4.1,0.8c1.3-1.5,0.5-9-1.2-9.6c-4.7-1.6-4.3-5.2-4.2-8.9
			c0.1-3.8,0.2-7.6,0-11.4c-0.2-4.1,0.8-7,4.3-9.8c4.3-3.3,6.6-8.2,6.8-13.8C387.1,138.4,387,134.8,387,131.1z M278.4,131
			c0-3.1,0.2-6.3,0-9.4c-0.8-13.3-10.5-22.9-22.8-22.8c-12.4,0.1-21.7,9.7-22.1,23.3c-0.2,5.1-0.1,10.3,0,15.4
			c0.1,13.1,6.2,20.9,19,24.3c3.6,1,4.7,4.1,3.6,9.7c-0.8,3.8-3.5,3.1-5.8,2.5c-4.4-1.2-5.2,0.8-5.1,4.5c0.1,2.2,0.7,5.1-2,6.1
			c-4.5,1.7-3.8,5.2-3.7,8.6c0,1-0.2,2.1,0.8,2.7c1.3,0.8,2.2-0.3,3-1.1c3.1-2.9,6.4-5.8,9.2-9c2.7-3,4.7-2.7,7.3,0.1
			c2.9,3.2,6,6.2,9.1,9.1c2,1.9,3.7,1.6,3.8-1.5c0.1-3.6,1-7.5-3.7-9.1c-1-0.3-1.8-1.3-1.7-2.3c1.1-9.4-4.8-20.2,5.6-27.9
			c2.3-1.7,3.6-4.7,4.6-7.6C279.1,141.6,278.3,136.3,278.4,131z"/>
		<path class="st0" d="M255.6,333.1c0-50.8,41-91.8,92-91.8c50.9,0,92.3,41.1,92.3,91.6c0.1,51.2-41.2,92.6-92.4,92.7
			C296.7,425.7,255.7,384.4,255.6,333.1z M268,333.6c0.2,44.2,36,79.8,80.1,79.7c43.6-0.1,79.6-36.4,79.4-80
			c-0.2-44.4-36-79.7-80.8-79.6C303.4,253.8,267.8,289.9,268,333.6z"/>
		<path class="st0" d="M141.3,270.1c0-15.9,0.1-31.8-0.1-47.6c0-3.4,1-4.5,4.2-4.1c1,0.1,2,0.2,3,0c4.3-0.7,5.4,1.3,5.4,5.3
			c-0.2,17.2-0.1,34.4-0.1,51.6c0,13.7,0,27.5,0,41.2c0,2,0.7,4.8-2.1,5.5c-3,0.7-6.3,1-9.3-0.2c-1.8-0.7-1-3-1-4.5
			C141.3,301.6,141.3,285.8,141.3,270.1C141.3,270.1,141.3,270.1,141.3,270.1z"/>
		<path class="st0" d="M262.2,253.4c0,9.9-0.2,19.9,0.1,29.8c0.2,5-2.7,5.1-6.3,5.2c-3.9,0.1-6.2-0.6-6.2-5.3c0.2-20,0.2-40,0-60.1
			c-0.1-6.1,4-4.2,7.1-4.5c3.5-0.3,5.5,0.3,5.4,4.7C262,233.2,262.2,243.3,262.2,253.4z"/>
		<path class="st0" d="M153,397.1c0,4.5-0.1,8.9,0,13.4c0.1,3.1-1.1,3.9-4.1,3.7c-8.3-0.5-8.3-0.4-8.3-9c0-6.9,0.2-13.9-0.1-20.8
			c-0.2-4.7,1.8-6,6.2-5.9c4,0.1,6.7,0.6,6.3,5.7C152.7,388.5,153,392.8,153,397.1C153,397.1,153,397.1,153,397.1z"/>
		<path class="st0" d="M262.1,396.1c0,4.5-0.1,8.9,0,13.4c0.1,4.1-2.4,4.6-5.5,4.3c-2.9-0.2-6.8,1.2-6.8-4c0-9.1,0-18.2,0-27.3
			c0-4.7,3.6-3.8,6.5-3.9c2.8-0.1,5.9-0.3,5.8,4C262.1,387.2,262.1,391.7,262.1,396.1z"/>
		<path class="st0" d="M100.5,413.9c-3.6,0.8-6-0.2-5.7-5.3c0.3-6.6,0.4-7,5.8-7.2c4.1-0.2,7,0.2,6.8,5.7
			C107,413.8,107.4,413.8,100.5,413.9z"/>
		<path class="st0" d="M210.5,413.8c-4.2,0.6-6.9,0.4-6.6-5c0.4-7,0.3-7.3,6-7.3c6.1-0.1,6.3,0.4,6.6,6.2
			C216.8,412.6,215.5,415.1,210.5,413.8z"/>
		<path class="st0" d="M354.2,338.8c0,7.8,0.2,15.6-0.1,23.3c-0.2,4.1,0.8,5.6,5.1,5.5c6.1-0.2,6.1,0.3,6.3,6.5
			c0.1,4.2-1.2,6-5.6,5.9c-8.3-0.3-16.5-0.3-24.8,0c-5.1,0.2-5-2.9-4.9-6.4c0-3.4,0-6.6,4.8-5.9c5.5,0.8,6.7-1.9,6.5-6.8
			c-0.3-11.1-0.2-22.2,0-33.2c0.1-3.9-1.3-5.3-5.2-5.2c-5.3,0.1-8.3-5.9-5.6-10.7c0.8-1.4,2.1-1.5,3.4-1.5c5.5,0,10.9,0,16.4,0
			c2.8,0,3.7,1.3,3.6,4c-0.2,8.3-0.1,16.5-0.1,24.8C354,338.8,354.1,338.8,354.2,338.8z"/>
		<path class="st0" d="M348.8,287.1c5.5-1.7,5.2,2.5,5.5,6.5c0.4,4.5-1.3,6.2-6,6c-6.5-0.2-6.9-0.3-7-5.9
			C341.3,287.5,341.6,287.2,348.8,287.1z"/>
	</g>
</g>
<g>
	<path class="st0" d="M256,21.3c31.7,0,62.4,6.2,91.4,18.4C375.3,51.5,400.4,68.5,422,90c21.6,21.6,38.5,46.7,50.3,74.6
		c12.2,28.9,18.4,59.7,18.4,91.4s-6.2,62.4-18.4,91.4c-11.8,27.9-28.7,53.1-50.3,74.6c-21.6,21.6-46.7,38.5-74.6,50.3
		c-28.9,12.2-59.7,18.4-91.4,18.4s-62.4-6.2-91.4-18.4c-27.9-11.8-53.1-28.7-74.6-50.3c-21.6-21.6-38.5-46.7-50.3-74.6
		c-12.2-28.9-18.4-59.7-18.4-91.4s6.2-62.4,18.4-91.4C51.5,136.7,68.5,111.6,90,90c21.6-21.6,46.7-38.5,74.6-50.3
		C193.6,27.5,224.3,21.3,256,21.3 M256,11.3C120.8,11.3,11.3,120.8,11.3,256S120.8,500.7,256,500.7S500.7,391.2,500.7,256
		S391.2,11.3,256,11.3L256,11.3z"/>
</g>
</svg>
