<?xml version="1.0" encoding="utf-8"?>
<!-- Generator: Adobe Illustrator 23.0.3, SVG Export Plug-In . SVG Version: 6.00 Build 0)  -->
<svg version="1.1" id="icons" xmlns="http://www.w3.org/2000/svg" xmlns:xlink="http://www.w3.org/1999/xlink" x="0px" y="0px"
	 width="512px" height="512px" viewBox="0 0 512 512" style="enable-background:new 0 0 512 512;" xml:space="preserve">
<style type="text/css">
	.st0{display:none;}
	.st1{display:inline;}
	.st2{fill:#231F20;}
	.st3{display:inline;fill:#231F20;}
	.st4{fill:#FFFFFF;}
</style>
<g class="st0">
	<g class="st1">
		<g>
			<path class="st2" d="M305.1,229.6c-1.2-1.2-2.8-1.9-4.5-1.9s-3.3,0.7-4.5,1.9s-1.9,2.8-1.9,4.5s0.7,3.3,1.9,4.5
				c1.2,1.2,2.8,1.9,4.5,1.9s3.3-0.7,4.5-1.9s1.9-2.8,1.9-4.5C307,232.5,306.3,230.8,305.1,229.6z"/>
		</g>
	</g>
	<g class="st1">
		<g>
			<path class="st2" d="M411.2,106.5c-0.1-0.1-0.1-0.1-0.2-0.2c-3.1-2.2-6.9-3.4-10.9-3.4H221.6c-3.8,0-7.4,1.1-10.3,3
				c-0.2,0.1-0.5,0.3-0.7,0.5c-4.9,3.5-8.1,9.2-8.1,15.6v99.4c0,10.5,8.6,19.1,19.1,19.1h47.2c3.5,0,6.4-2.9,6.4-6.4
				s-2.9-6.4-6.4-6.4h-40.9l52.3-61.1l26.9,19.4c1.1,0.8,2.4,1.2,3.7,1.2c1.3,0,2.6-0.4,3.7-1.2l27-19.4l52.3,61.1h-65.1
				c-3.5,0-6.4,2.9-6.4,6.4s2.9,6.4,6.4,6.4H400c10.5,0,19.1-8.6,19.1-19.1V122C419.1,115.6,416,109.9,411.2,106.5z M215.3,222.8
				c-0.1-0.4-0.1-0.9-0.1-1.4V122c0-0.7,0.1-1.3,0.3-2l54.3,39.2L215.3,222.8z M310.8,173.1l-79.6-57.5h159.5L310.8,173.1z
				 M406.4,221.4c0,0.5-0.1,0.9-0.1,1.4l-54.4-63.5l54.3-39c0.2,0.6,0.3,1.2,0.3,1.8L406.4,221.4L406.4,221.4z"/>
		</g>
	</g>
	<g class="st1">
		<g>
			<path class="st2" d="M378.4,381.4c-1,0-1.9,0.2-2.7,0.6h-3.1c-3.5,0-6.4,2.9-6.4,6.4s2.9,6.4,6.4,6.4h5.8c3.5,0,6.4-2.9,6.4-6.4
				v-0.6C384.7,384.3,381.9,381.4,378.4,381.4z"/>
		</g>
	</g>
	<g class="st1">
		<g>
			<path class="st2" d="M378.4,349.6c-3.5,0-6.4,2.9-6.4,6.4v6.4c0,3.5,2.9,6.4,6.4,6.4s6.4-2.9,6.4-6.4V356
				C384.7,352.4,381.9,349.6,378.4,349.6z"/>
		</g>
	</g>
	<g class="st1">
		<g>
			<path class="st2" d="M347.1,382h-6.4c-3.5,0-6.4,2.9-6.4,6.4s2.9,6.4,6.4,6.4h6.4c3.5,0,6.4-2.9,6.4-6.4
				C353.4,384.9,350.6,382,347.1,382z"/>
		</g>
	</g>
	<g class="st1">
		<g>
			<path class="st2" d="M378.4,254c-3.5,0-6.4,2.9-6.4,6.4v6.4c0,3.5,2.9,6.4,6.4,6.4s6.4-2.9,6.4-6.4v-6.4
				C384.7,256.8,381.9,254,378.4,254z"/>
		</g>
	</g>
	<g class="st1">
		<g>
			<path class="st2" d="M378.4,285.8c-3.5,0-6.4,2.9-6.4,6.4v6.4c0,3.5,2.9,6.4,6.4,6.4s6.4-2.9,6.4-6.4v-6.4
				C384.7,288.7,381.9,285.8,378.4,285.8z"/>
		</g>
	</g>
	<g class="st1">
		<g>
			<path class="st2" d="M378.4,317.7c-3.5,0-6.4,2.9-6.4,6.4v6.4c0,3.5,2.9,6.4,6.4,6.4s6.4-2.9,6.4-6.4v-6.4
				C384.7,320.5,381.9,317.7,378.4,317.7z"/>
		</g>
	</g>
	<g class="st1">
		<g>
			<path class="st2" d="M140,137.3h-6.4c-3.5,0-6.4,2.9-6.4,6.4s2.9,6.4,6.4,6.4h6.4c3.5,0,6.4-2.9,6.4-6.4
				C146.4,140.1,143.5,137.3,140,137.3z"/>
		</g>
	</g>
	<g class="st1">
		<g>
			<path class="st2" d="M171.9,137.3h-6.4c-3.5,0-6.4,2.9-6.4,6.4s2.9,6.4,6.4,6.4h6.4c3.5,0,6.4-2.9,6.4-6.4
				S175.4,137.3,171.9,137.3z"/>
		</g>
	</g>
	<g class="st1">
		<g>
			<path class="st2" d="M133.6,162.8c-3.5,0-6.4,2.9-6.4,6.4v6.4c0,3.5,2.9,6.4,6.4,6.4s6.4-2.9,6.4-6.4v-6.4
				C140,165.6,137.1,162.8,133.6,162.8z"/>
		</g>
	</g>
	<g class="st1">
		<g>
			<path class="st2" d="M133.6,194.6c-3.5,0-6.4,2.9-6.4,6.4v6.4c0,3.5,2.9,6.4,6.4,6.4s6.4-2.9,6.4-6.4V201
				C140,197.5,137.1,194.6,133.6,194.6z"/>
		</g>
	</g>
	<g class="st1">
		<g>
			<path class="st2" d="M163.3,361.2c-1.2-1.2-2.8-1.9-4.5-1.9s-3.3,0.7-4.5,1.9c-1.2,1.2-1.9,2.8-1.9,4.5s0.7,3.3,1.9,4.5
				s2.8,1.9,4.5,1.9s3.3-0.7,4.5-1.9c1.2-1.2,1.9-2.8,1.9-4.5S164.5,362.4,163.3,361.2z"/>
		</g>
	</g>
	<g class="st1">
		<g>
			<path class="st2" d="M291.2,367.9l-33.6-33.6c-9.6-9.6-25.3-9.6-35,0l-2.2,2.2c-3,3-8,3-11,0l-24-24c-1.5-1.5-2.3-3.4-2.3-5.5
				s0.8-4,2.3-5.5l2.2-2.2c9.6-9.6,9.6-25.3,0-35L154,230.7c-9.6-9.6-25.3-9.6-35,0l-8,8c-24.3,24.3-24.3,63.8,0,88.2l21.9,21.9
				c2.5,2.5,6.5,2.5,9,0s2.5-6.5,0-9L120,317.9c-19.3-19.3-19.3-50.8,0-70.1l8-8c4.7-4.7,12.3-4.7,16.9,0l33.6,33.6
				c4.7,4.7,4.7,12.3,0,16.9l-2.2,2.2c-0.8,0.8-1.5,1.7-2.2,2.6l-26.5-26.5c-2.5-2.5-6.5-2.5-9,0s-2.5,6.5,0,9l31.8,31.8
				c0.5,4.6,2.6,8.8,5.9,12.2l24,24c8,8,21,8,29,0l2.2-2.2c4.7-4.7,12.3-4.7,16.9,0L282,377c2.3,2.3,3.5,5.3,3.5,8.5
				s-1.2,6.2-3.5,8.5l-4.6,4.6L246.8,368c-2.5-2.5-6.5-2.5-9,0s-2.5,6.5,0,9l30.1,30.1c-19.4,14-46.7,12.3-64.1-5.1l-16.5-16.5
				c-2.5-2.5-6.5-2.5-9,0s-2.5,6.5,0,9l16.5,16.5c12.2,12.2,28.1,18.2,44.1,18.2s31.9-6.1,44.1-18.2l8-8c4.7-4.7,7.2-10.9,7.2-17.5
				C298.5,378.8,295.9,372.6,291.2,367.9z"/>
		</g>
	</g>
</g>
<g class="st0">
	<path class="st3" d="M256,21.3c31.7,0,62.4,6.2,91.4,18.4c27.9,11.8,53,28.8,74.6,50.3c21.6,21.6,38.5,46.7,50.3,74.6
		c12.2,28.9,18.4,59.7,18.4,91.4s-6.2,62.4-18.4,91.4c-11.8,27.9-28.7,53.1-50.3,74.6c-21.6,21.6-46.7,38.5-74.6,50.3
		c-28.9,12.2-59.7,18.4-91.4,18.4s-62.4-6.2-91.4-18.4c-27.9-11.8-53.1-28.7-74.6-50.3c-21.6-21.6-38.5-46.7-50.3-74.6
		c-12.2-28.9-18.4-59.7-18.4-91.4s6.2-62.4,18.4-91.4c11.8-27.9,28.8-53,50.3-74.6c21.6-21.6,46.7-38.5,74.6-50.3
		C193.6,27.5,224.3,21.3,256,21.3 M256,11.3C120.8,11.3,11.3,120.8,11.3,256S120.8,500.7,256,500.7S500.7,391.2,500.7,256
		S391.2,11.3,256,11.3L256,11.3z"/>
</g>
<g>
	<path class="st4" d="M256,11.3C120.8,11.3,11.3,120.8,11.3,256S120.8,500.7,256,500.7S500.7,391.2,500.7,256S391.2,11.3,256,11.3z
		 M165.5,137.3h6.4c3.5,0,6.4,2.9,6.4,6.4s-2.9,6.4-6.4,6.4h-6.4c-3.5,0-6.4-2.9-6.4-6.4S162,137.3,165.5,137.3z M133.6,137.3h6.4
		c3.5,0,6.4,2.8,6.4,6.4c0,3.5-2.9,6.4-6.4,6.4h-6.4c-3.5,0-6.4-2.9-6.4-6.4S130.1,137.3,133.6,137.3z M127.2,169.2
		c0-3.5,2.9-6.4,6.4-6.4s6.4,2.8,6.4,6.4v6.4c0,3.5-2.9,6.4-6.4,6.4s-6.4-2.9-6.4-6.4V169.2z M127.2,201c0-3.5,2.9-6.4,6.4-6.4
		s6.4,2.9,6.4,6.4v6.4c0,3.5-2.9,6.4-6.4,6.4s-6.4-2.9-6.4-6.4V201z M163.3,370.2c-1.2,1.2-2.8,1.9-4.5,1.9c-1.7,0-3.3-0.7-4.5-1.9
		c-1.2-1.2-1.9-2.8-1.9-4.5s0.7-3.3,1.9-4.5c1.2-1.2,2.8-1.9,4.5-1.9c1.7,0,3.3,0.7,4.5,1.9c1.2,1.2,1.9,2.8,1.9,4.5
		S164.5,369,163.3,370.2z M298.2,385.5c0,6.6-2.5,12.8-7.2,17.5l-8,8c-12.2,12.1-28.1,18.2-44.1,18.2s-31.9-6-44.1-18.2l-16.5-16.5
		c-2.5-2.5-2.5-6.5,0-9s6.5-2.5,9,0l16.5,16.5c17.4,17.4,44.7,19.1,64.1,5.1L237.8,377c-2.5-2.5-2.5-6.5,0-9s6.5-2.5,9,0l30.6,30.6
		l4.6-4.6c2.3-2.3,3.5-5.3,3.5-8.5s-1.2-6.2-3.5-8.5l-33.6-33.6c-4.6-4.7-12.2-4.7-16.9,0l-2.2,2.2c-8,8-21,8-29,0l-24-24
		c-3.3-3.4-5.4-7.6-5.9-12.2l-31.8-31.8c-2.5-2.5-2.5-6.5,0-9s6.5-2.5,9,0l26.5,26.5c0.7-0.9,1.4-1.8,2.2-2.6l2.2-2.2
		c4.7-4.6,4.7-12.2,0-16.9l-33.6-33.6c-4.6-4.7-12.2-4.7-16.9,0l-8,8c-19.3,19.3-19.3,50.8,0,70.1l21.9,21.9c2.5,2.5,2.5,6.5,0,9
		s-6.5,2.5-9,0L111,326.9c-24.3-24.4-24.3-63.9,0-88.2l8-8c9.7-9.6,25.4-9.6,35,0l33.6,33.6c9.6,9.7,9.6,25.4,0,35l-2.2,2.2
		c-1.5,1.5-2.3,3.4-2.3,5.5c0,2.1,0.8,4,2.3,5.5l24,24c3,3,8,3,11,0l2.2-2.2c9.7-9.6,25.4-9.6,35,0l33.6,33.6
		C295.9,372.6,298.5,378.8,298.2,385.5z M305.1,238.6c-1.2,1.2-2.8,1.9-4.5,1.9s-3.3-0.7-4.5-1.9c-1.2-1.2-1.9-2.8-1.9-4.5
		c0-1.7,0.7-3.3,1.9-4.5c1.2-1.2,2.8-1.9,4.5-1.9s3.3,0.7,4.5,1.9c1.2,1.2,1.9,2.9,1.9,4.5C307,235.8,306.3,237.4,305.1,238.6z
		 M347.1,394.8h-6.4c-3.5,0-6.4-2.9-6.4-6.4s2.9-6.4,6.4-6.4h6.4c3.5,0,6.3,2.9,6.4,6.4C353.5,391.9,350.6,394.8,347.1,394.8z
		 M384.8,388.4c0,3.5-2.9,6.4-6.4,6.4h-5.8c-3.5,0-6.4-2.9-6.4-6.4s2.9-6.4,6.4-6.4h3.1c0.8-0.4,1.7-0.6,2.7-0.6
		c3.5,0,6.3,2.9,6.4,6.4V388.4z M384.8,362.4c0,3.5-2.9,6.4-6.4,6.4s-6.4-2.9-6.4-6.4V356c0-3.5,2.9-6.4,6.4-6.4s6.3,2.8,6.4,6.4
		V362.4z M384.8,330.5c0,3.5-2.9,6.4-6.4,6.4s-6.4-2.9-6.4-6.4v-6.4c0-3.5,2.9-6.4,6.4-6.4s6.3,2.8,6.4,6.4V330.5z M384.8,298.6
		c0,3.5-2.9,6.4-6.4,6.4s-6.4-2.9-6.4-6.4v-6.4c0-3.5,2.9-6.4,6.4-6.4s6.3,2.9,6.4,6.4V298.6z M384.8,266.8c0,3.5-2.9,6.4-6.4,6.4
		s-6.4-2.9-6.4-6.4v-6.4c0-3.5,2.9-6.4,6.4-6.4s6.3,2.8,6.4,6.4V266.8z M419.1,221.4c0,10.5-8.6,19.1-19.1,19.1h-71.3
		c-3.5,0-6.4-2.9-6.4-6.4s2.9-6.4,6.4-6.4h65.1l-52.3-61.1l-27,19.4c-1.1,0.8-2.4,1.2-3.7,1.2c-1.3,0-2.6-0.4-3.7-1.2l-26.9-19.4
		l-52.3,61.1h40.9c3.5,0,6.4,2.9,6.4,6.4s-2.9,6.4-6.4,6.4h-47.2c-10.5,0-19.1-8.6-19.1-19.1V122c0-6.4,3.2-12.1,8.1-15.6
		c0.2-0.2,0.5-0.4,0.7-0.5c2.9-1.9,6.5-3,10.3-3h178.5c4,0,7.8,1.2,10.9,3.4c0.1,0.1,0.1,0.1,0.2,0.2c4.8,3.4,7.9,9.1,7.9,15.5
		V221.4z"/>
	<path class="st4" d="M215.2,122v99.4c0,0.5,0,1,0.1,1.4l54.5-63.6L215.5,120C215.3,120.7,215.2,121.3,215.2,122z"/>
	<polygon class="st4" points="231.2,115.6 310.8,173.1 390.7,115.6 	"/>
	<path class="st4" d="M351.9,159.3l54.4,63.5c0-0.5,0.1-0.9,0.1-1.4l0.1-99.3c0-0.6-0.1-1.2-0.3-1.8L351.9,159.3z"/>
</g>
</svg>
